<svg xmlns="http://www.w3.org/2000/svg" viewBox="0 0 64 64">
  <rect width="64" height="64" rx="14" fill="#19231e"/>
  <path d="M13 47C7 34 12 18 25 12M43 14c10 7 13 22 7 33" fill="none" stroke="#66764a" stroke-width="3" stroke-linecap="round"/>
  <path d="M28 18c-5-4-5-8-2-12M33 19c-4-5-2-10 2-14M38 18c-2-5 1-9 5-11" fill="none" stroke="#66764a" stroke-width="2.4" stroke-linecap="round"/>
  <path d="M34 8c4-3 8-4 12-3-2 4-6 6-12 3Zm5 5c5-2 9-1 12 1-4 3-8 3-12-1Z" fill="#66764a"/>
  <ellipse cx="44" cy="12" rx="2.4" ry="3.2" fill="#101713" stroke="#f7f4ec" stroke-width="1"/>
  <ellipse cx="49" cy="15" rx="2.4" ry="3.2" fill="#c7d39a"/>
  <path d="M19 31c1-7 6-11 13-11s12 4 13 11H19Zm1 2h24c-1 8-5 12-12 12s-11-4-12-12Z" fill="#f7f4ec"/>
  <path d="M29 18h6M18 32h28" fill="none" stroke="#19231e" stroke-width="1.8" stroke-linecap="round"/>
  <circle cx="38" cy="25" r="2.2" fill="#19231e"/>
  <path d="M26 44l-4 10M38 44l4 10M32 45v9M23 51h18" fill="none" stroke="#f7f4ec" stroke-width="2.5" stroke-linecap="round"/>
  <circle cx="21" cy="55" r="3" fill="none" stroke="#f7f4ec" stroke-width="2"/>
  <circle cx="43" cy="55" r="3" fill="none" stroke="#f7f4ec" stroke-width="2"/>
</svg>
